<svg width="29" height="29" viewBox="0 0 29 29" fill="none" xmlns="http://www.w3.org/2000/svg">
<g filter="url(#filter0_d_946_4426)">
<rect x="1" width="27" height="27" rx="13.5" fill="white"/>
<path d="M15.793 8.29279C15.9805 8.10532 16.2348 8 16.5 8C16.7652 8 17.0195 8.10532 17.207 8.29279L21.707 12.7928C21.8945 12.9803 21.9998 13.2346 21.9998 13.4998C21.9998 13.765 21.8945 14.0193 21.707 14.2068L17.207 18.7068C17.0184 18.8889 16.7658 18.9897 16.5036 18.9875C16.2414 18.9852 15.9906 18.88 15.8052 18.6946C15.6198 18.5092 15.5146 18.2584 15.5123 17.9962C15.51 17.734 15.6108 17.4814 15.793 17.2928L18.5 14.4998H9C8.73478 14.4998 8.48043 14.3944 8.29289 14.2069C8.10536 14.0194 8 13.765 8 13.4998C8 13.2346 8.10536 12.9802 8.29289 12.7927C8.48043 12.6051 8.73478 12.4998 9 12.4998H18.5L15.793 9.70679C15.6055 9.51926 15.5002 9.26495 15.5002 8.99979C15.5002 8.73462 15.6055 8.48031 15.793 8.29279Z" fill="#B13F3E"/>
</g>
<defs>
<filter id="filter0_d_946_4426" x="0" y="0" width="29" height="29" filterUnits="userSpaceOnUse" color-interpolation-filters="sRGB">
<feFlood flood-opacity="0" result="BackgroundImageFix"/>
<feColorMatrix in="SourceAlpha" type="matrix" values="0 0 0 0 0 0 0 0 0 0 0 0 0 0 0 0 0 0 127 0" result="hardAlpha"/>
<feOffset dy="1"/>
<feGaussianBlur stdDeviation="0.5"/>
<feComposite in2="hardAlpha" operator="out"/>
<feColorMatrix type="matrix" values="0 0 0 0 0 0 0 0 0 0 0 0 0 0 0 0 0 0 0.25 0"/>
<feBlend mode="normal" in2="BackgroundImageFix" result="effect1_dropShadow_946_4426"/>
<feBlend mode="normal" in="SourceGraphic" in2="effect1_dropShadow_946_4426" result="shape"/>
</filter>
</defs>
</svg>
