<svg width="100%" height="100%" viewBox="0 0 8 8" fill="none" xmlns="http://www.w3.org/2000/svg">
<path d="M4 0C1.79086 0 0 1.79086 0 4C0 6.20914 1.79086 8 4 8C6.20914 8 8 6.20914 8 4C8 1.79086 6.20914 0 4 0ZM4.88526 2.29002C5.36056 2.28259 5.79041 2.54099 5.99417 2.98151C6.18266 3.56389 6.02492 4.15635 5.6925 4.60284C5.47309 4.90562 5.21085 5.16673 4.94275 5.39489C4.69611 5.62448 4.14403 6.07883 3.99772 6.09144C3.86841 6.06672 3.72323 5.92025 3.62057 5.84499C3.04367 5.40645 2.42279 4.87337 2.10791 4.29027C1.8439 3.73047 1.84342 3.03785 2.25431 2.60867C2.78709 2.12835 3.59024 2.22236 3.99772 2.72417C4.10715 2.5822 4.24175 2.47039 4.40147 2.38905C4.56333 2.32445 4.72682 2.2925 4.88526 2.29002Z" fill="#C4C4C4"/>
</svg>
