<svg width="100%" height="100%" viewBox="0 0 12 12" fill="none" xmlns="http://www.w3.org/2000/svg">
<path d="M6 0C2.68629 0 0 2.68629 0 6C0 9.31371 2.68629 12 6 12C9.31371 12 12 9.31371 12 6C12 2.68629 9.31371 0 6 0ZM7.32789 3.43503C8.04084 3.42389 8.68561 3.81149 8.99126 4.47227C9.27399 5.34583 9.03738 6.23452 8.53875 6.90426C8.20963 7.35843 7.81628 7.7501 7.41413 8.09233C7.04416 8.43672 6.21605 9.11824 5.99658 9.13716C5.80261 9.10008 5.58485 8.88038 5.43085 8.76748C4.56551 8.10967 3.63418 7.31006 3.16186 6.43541C2.76585 5.59571 2.76513 4.55677 3.38146 3.913C4.18063 3.19252 5.38536 3.33354 5.99658 4.08625C6.16073 3.8733 6.36263 3.70559 6.6022 3.58358C6.84499 3.48668 7.09023 3.43875 7.32789 3.43503Z" fill="#B13F3E"/>
</svg>
