<svg width="100%" height="100%" viewBox="0 0 11 11" fill="none" xmlns="http://www.w3.org/2000/svg">
<path d="M8.24998 3.66666H7.79165V3.20832C7.79165 1.9447 6.7636 0.916656 5.49998 0.916656C4.23635 0.916656 3.20831 1.9447 3.20831 3.20832V3.66666H2.74998C2.50686 3.66666 2.27371 3.76323 2.1018 3.93514C1.92989 4.10705 1.83331 4.34021 1.83331 4.58332V9.16666C1.83331 9.40977 1.92989 9.64293 2.1018 9.81484C2.27371 9.98675 2.50686 10.0833 2.74998 10.0833H8.24998C8.49309 10.0833 8.72625 9.98675 8.89816 9.81484C9.07007 9.64293 9.16665 9.40977 9.16665 9.16666V4.58332C9.16665 4.34021 9.07007 4.10705 8.89816 3.93514C8.72625 3.76323 8.49309 3.66666 8.24998 3.66666ZM4.12498 3.20832C4.12498 2.45024 4.7419 1.83332 5.49998 1.83332C6.25806 1.83332 6.87498 2.45024 6.87498 3.20832V3.66666H4.12498V3.20832ZM5.95831 7.20636V8.24999H5.04165V7.20636C4.76894 7.04778 4.58331 6.75536 4.58331 6.41666C4.58331 6.17354 4.67989 5.94038 4.8518 5.76848C5.02371 5.59657 5.25686 5.49999 5.49998 5.49999C5.74309 5.49999 5.97625 5.59657 6.14816 5.76848C6.32007 5.94038 6.41665 6.17354 6.41665 6.41666C6.41665 6.75491 6.23102 7.04732 5.95831 7.20636Z" fill="#A0A0A0"/>
</svg>
