<svg width="20" height="20" viewBox="0 0 20 20" fill="none" xmlns="http://www.w3.org/2000/svg">
<path d="M1 3.76269H19C19.2652 3.76269 19.5196 3.5984 19.7071 3.30597C19.8946 3.01354 20 2.61692 20 2.20336C20 1.78981 19.8946 1.39319 19.7071 1.10076C19.5196 0.808329 19.2652 0.644043 19 0.644043H1C0.734784 0.644043 0.48043 0.808329 0.292893 1.10076C0.105357 1.39319 0 1.78981 0 2.20336C0 2.61692 0.105357 3.01354 0.292893 3.30597C0.48043 3.5984 0.734784 3.76269 1 3.76269ZM19 16.2373H1C0.734784 16.2373 0.48043 16.4015 0.292893 16.694C0.105357 16.9864 0 17.383 0 17.7966C0 18.2101 0.105357 18.6068 0.292893 18.8992C0.48043 19.1916 0.734784 19.3559 1 19.3559H19C19.2652 19.3559 19.5196 19.1916 19.7071 18.8992C19.8946 18.6068 20 18.2101 20 17.7966C20 17.383 19.8946 16.9864 19.7071 16.694C19.5196 16.4015 19.2652 16.2373 19 16.2373ZM19 8.44065H1C0.734784 8.44065 0.48043 8.60494 0.292893 8.89737C0.105357 9.1898 0 9.58642 0 9.99998C0 10.4135 0.105357 10.8102 0.292893 11.1026C0.48043 11.395 0.734784 11.5593 1 11.5593H19C19.2652 11.5593 19.5196 11.395 19.7071 11.1026C19.8946 10.8102 20 10.4135 20 9.99998C20 9.58642 19.8946 9.1898 19.7071 8.89737C19.5196 8.60494 19.2652 8.44065 19 8.44065Z" fill="#525252"/>
</svg>
