<svg width="30" height="18" viewBox="0 0 30 18" fill="none" xmlns="http://www.w3.org/2000/svg">
<path d="M1.5 3H28.5C28.8978 3 29.2794 2.84196 29.5607 2.56066C29.842 2.27936 30 1.89782 30 1.5C30 1.10218 29.842 0.720645 29.5607 0.43934C29.2794 0.158036 28.8978 0 28.5 0H1.5C1.10218 0 0.720644 0.158036 0.43934 0.43934C0.158035 0.720645 0 1.10218 0 1.5C0 1.89782 0.158035 2.27936 0.43934 2.56066C0.720644 2.84196 1.10218 3 1.5 3ZM28.5 15H1.5C1.10218 15 0.720644 15.158 0.43934 15.4393C0.158035 15.7206 0 16.1022 0 16.5C0 16.8978 0.158035 17.2794 0.43934 17.5607C0.720644 17.842 1.10218 18 1.5 18H28.5C28.8978 18 29.2794 17.842 29.5607 17.5607C29.842 17.2794 30 16.8978 30 16.5C30 16.1022 29.842 15.7206 29.5607 15.4393C29.2794 15.158 28.8978 15 28.5 15ZM28.5 7.5H1.5C1.10218 7.5 0.720644 7.65804 0.43934 7.93934C0.158035 8.22064 0 8.60218 0 9C0 9.39782 0.158035 9.77936 0.43934 10.0607C0.720644 10.342 1.10218 10.5 1.5 10.5H28.5C28.8978 10.5 29.2794 10.342 29.5607 10.0607C29.842 9.77936 30 9.39782 30 9C30 8.60218 29.842 8.22064 29.5607 7.93934C29.2794 7.65804 28.8978 7.5 28.5 7.5Z" fill="#525252"/>
</svg>
