<svg width="21" height="20" viewBox="0 0 21 20" fill="none" xmlns="http://www.w3.org/2000/svg">
<g clip-path="url(#clip0_413_2343)">
<path d="M19.2158 6.7501L13.4458 1.2201C12.6639 0.446349 11.6089 0.0113053 10.5088 0.00896639C9.40874 0.00662747 8.35191 0.437181 7.56667 1.2076L1.78333 6.7501C1.37885 7.13968 1.0568 7.6066 0.836341 8.12311C0.61588 8.63962 0.5015 9.19518 0.5 9.75677L0.5 15.8334C0.501323 16.9381 0.940735 17.9971 1.72185 18.7783C2.50296 19.5594 3.562 19.9988 4.66667 20.0001H16.3333C17.438 19.9988 18.497 19.5594 19.2782 18.7783C20.0593 17.9971 20.4987 16.9381 20.5 15.8334V9.75677C20.4985 9.1951 20.3841 8.63946 20.1635 8.12293C19.9429 7.6064 19.6206 7.13953 19.2158 6.7501ZM8.7325 2.39843C9.20503 1.9301 9.84413 1.66845 10.5094 1.67095C11.1747 1.67345 11.8118 1.93989 12.2808 2.41177L17.9033 7.79843L12.2675 13.4351C11.7911 13.8892 11.1582 14.1426 10.5 14.1426C9.84183 14.1426 9.2089 13.8892 8.7325 13.4351L3.09583 7.79843L8.7325 2.39843ZM18.8333 15.8334C18.8333 16.4965 18.5699 17.1324 18.1011 17.6012C17.6323 18.07 16.9964 18.3334 16.3333 18.3334H4.66667C4.00363 18.3334 3.36774 18.07 2.8989 17.6012C2.43006 17.1324 2.16667 16.4965 2.16667 15.8334V9.75677C2.16751 9.595 2.18397 9.4337 2.21583 9.2751L7.55417 14.6134C8.3381 15.3897 9.39676 15.8252 10.5 15.8252C11.6032 15.8252 12.6619 15.3897 13.4458 14.6134L18.7842 9.2751C18.816 9.4337 18.8325 9.595 18.8333 9.75677V15.8334Z" fill="#3D3D3D"/>
</g>
<defs>
<clipPath id="clip0_413_2343">
<rect width="20" height="20" fill="white" transform="translate(0.5)"/>
</clipPath>
</defs>
</svg>
