<svg width="22" height="20" viewBox="0 0 22 20" fill="none" xmlns="http://www.w3.org/2000/svg">
<path d="M21.9254 1.53477L15.1557 19.023C15.0888 19.1962 14.9801 19.3502 14.8393 19.4713C14.6986 19.5925 14.5301 19.677 14.3488 19.7174C14.1676 19.7578 13.9792 19.7528 13.8003 19.7029C13.6214 19.6531 13.4576 19.5598 13.3234 19.4314L9.50761 15.7815L7.16757 18.1204C7.08861 18.1991 6.9881 18.2526 6.87873 18.2743C6.76936 18.2959 6.65603 18.2846 6.55306 18.2419C6.45008 18.1991 6.36208 18.1269 6.30016 18.0341C6.23824 17.9414 6.20518 17.8324 6.20516 17.721V12.6223L0.348303 7.02042C0.202985 6.8814 0.0974693 6.70605 0.0426789 6.51255C-0.0121115 6.31905 -0.0141849 6.11441 0.0366737 5.91984C0.0875323 5.72526 0.189474 5.54782 0.331945 5.40588C0.474416 5.26393 0.652237 5.16265 0.846999 5.11252L20.5917 0.0352922C20.7925 -0.0161303 21.0035 -0.0112777 21.2017 0.0493177C21.3998 0.109913 21.5775 0.223911 21.7151 0.378807C21.8528 0.533703 21.9451 0.723515 21.982 0.927424C22.0189 1.13133 21.9989 1.34146 21.9242 1.53477H21.9254ZM19.1803 2.821L6.8054 10.8893L8.76295 12.7622L19.1803 2.821Z" fill="#B13F3E"/>
</svg>
