<svg width="21" height="20" viewBox="0 0 21 20" fill="none" xmlns="http://www.w3.org/2000/svg">
<g clip-path="url(#clip0_413_2341)">
<path d="M16.3333 0.833191H4.66667C3.562 0.834514 2.50296 1.27393 1.72185 2.05504C0.940735 2.83616 0.501323 3.89519 0.5 4.99986L0.5 14.9999C0.501323 16.1045 0.940735 17.1636 1.72185 17.9447C2.50296 18.7258 3.562 19.1652 4.66667 19.1665H16.3333C17.438 19.1652 18.497 18.7258 19.2782 17.9447C20.0593 17.1636 20.4987 16.1045 20.5 14.9999V4.99986C20.4987 3.89519 20.0593 2.83616 19.2782 2.05504C18.497 1.27393 17.438 0.834514 16.3333 0.833191ZM4.66667 2.49986H16.3333C16.8323 2.50084 17.3196 2.65112 17.7325 2.93136C18.1453 3.2116 18.4649 3.60898 18.65 4.07236L12.2683 10.4549C11.7987 10.9226 11.1628 11.1852 10.5 11.1852C9.83715 11.1852 9.20131 10.9226 8.73167 10.4549L2.35 4.07236C2.53512 3.60898 2.85468 3.2116 3.26754 2.93136C3.6804 2.65112 4.16768 2.50084 4.66667 2.49986ZM16.3333 17.4999H4.66667C4.00363 17.4999 3.36774 17.2365 2.8989 16.7676C2.43006 16.2988 2.16667 15.6629 2.16667 14.9999V6.24986L7.55333 11.6332C8.33552 12.4134 9.39521 12.8516 10.5 12.8516C11.6048 12.8516 12.6645 12.4134 13.4467 11.6332L18.8333 6.24986V14.9999C18.8333 15.6629 18.5699 16.2988 18.1011 16.7676C17.6323 17.2365 16.9964 17.4999 16.3333 17.4999Z" fill="#B13F3E"/>
</g>
<defs>
<clipPath id="clip0_413_2341">
<rect width="20" height="20" fill="white" transform="translate(0.5)"/>
</clipPath>
</defs>
</svg>
