<svg width="18" height="18" viewBox="0 0 18 18" fill="none" xmlns="http://www.w3.org/2000/svg">
<g id="Actions &#38; UI/setting">
<path id="Vector" d="M14.925 9.49504C14.8048 9.35818 14.7385 9.18223 14.7385 9.00004C14.7385 8.81786 14.8048 8.64191 14.925 8.50504L15.885 7.42504C15.9908 7.30704 16.0565 7.15857 16.0727 7.00092C16.0889 6.84328 16.0547 6.68456 15.975 6.54754L14.475 3.95254C14.3962 3.81568 14.2762 3.7072 14.1321 3.64256C13.988 3.57792 13.8272 3.56041 13.6725 3.59254L12.2625 3.87754C12.0831 3.91461 11.8964 3.88474 11.7375 3.79354C11.5786 3.70235 11.4585 3.55616 11.4 3.38254L10.9425 2.01004C10.8922 1.86108 10.7964 1.73169 10.6685 1.64017C10.5407 1.54866 10.3873 1.49964 10.23 1.50004H7.23004C7.06649 1.49151 6.90464 1.53674 6.76922 1.62883C6.63379 1.72092 6.53223 1.85481 6.48004 2.01004L6.06004 3.38254C6.00154 3.55616 5.88152 3.70235 5.72263 3.79354C5.56373 3.88474 5.37696 3.91461 5.19754 3.87754L3.75004 3.59254C3.60346 3.57183 3.45402 3.59496 3.32055 3.65902C3.18709 3.72309 3.07557 3.82521 3.00004 3.95254L1.50004 6.54754C1.41841 6.68303 1.38171 6.84086 1.39518 6.99846C1.40865 7.15606 1.47161 7.30537 1.57504 7.42504L2.52754 8.50504C2.64778 8.64191 2.71409 8.81786 2.71409 9.00004C2.71409 9.18223 2.64778 9.35818 2.52754 9.49504L1.57504 10.575C1.47161 10.6947 1.40865 10.844 1.39518 11.0016C1.38171 11.1592 1.41841 11.3171 1.50004 11.4525L3.00004 14.0475C3.07887 14.1844 3.19888 14.2929 3.34298 14.3575C3.48708 14.4222 3.64791 14.4397 3.80254 14.4075L5.21254 14.1225C5.39196 14.0855 5.57873 14.1154 5.73763 14.2065C5.89652 14.2977 6.01654 14.4439 6.07504 14.6175L6.53254 15.99C6.58473 16.1453 6.68629 16.2792 6.82172 16.3713C6.95715 16.4633 7.11899 16.5086 7.28254 16.5H10.2825C10.4398 16.5005 10.5932 16.4514 10.721 16.3599C10.8489 16.2684 10.9447 16.139 10.995 15.99L11.4525 14.6175C11.511 14.4439 11.6311 14.2977 11.79 14.2065C11.9489 14.1154 12.1356 14.0855 12.315 14.1225L13.725 14.4075C13.8797 14.4397 14.0405 14.4222 14.1846 14.3575C14.3287 14.2929 14.4487 14.1844 14.5275 14.0475L16.0275 11.4525C16.1072 11.3155 16.1414 11.1568 16.1252 10.9992C16.109 10.8415 16.0433 10.693 15.9375 10.575L14.925 9.49504ZM13.8075 10.5L14.4075 11.175L13.4475 12.84L12.5625 12.66C12.0224 12.5496 11.4605 12.6414 10.9835 12.9179C10.5065 13.1944 10.1477 13.6364 9.97504 14.16L9.69004 15H7.77004L7.50004 14.145C7.32744 13.6214 6.96858 13.1794 6.4916 12.9029C6.01462 12.6264 5.45271 12.5346 4.91254 12.645L4.02754 12.825L3.05254 11.1675L3.65254 10.4925C4.02151 10.08 4.22549 9.54599 4.22549 8.99254C4.22549 8.43909 4.02151 7.90506 3.65254 7.49254L3.05254 6.81754L4.01254 5.16754L4.89754 5.34754C5.43771 5.45796 5.99961 5.3662 6.4766 5.08969C6.95358 4.81318 7.31243 4.37116 7.48504 3.84754L7.77004 3.00004H9.69004L9.97504 3.85504C10.1477 4.37866 10.5065 4.82068 10.9835 5.09719C11.4605 5.3737 12.0224 5.46546 12.5625 5.35504L13.4475 5.17504L14.4075 6.84004L13.8075 7.51504C13.4427 7.92661 13.2413 8.45756 13.2413 9.00754C13.2413 9.55753 13.4427 10.0885 13.8075 10.5ZM8.73004 6.00004C8.1367 6.00004 7.55668 6.17599 7.06333 6.50564C6.56999 6.83528 6.18547 7.30381 5.95841 7.85199C5.73134 8.40017 5.67193 9.00337 5.78769 9.58531C5.90344 10.1673 6.18917 10.7018 6.60872 11.1214C7.02828 11.5409 7.56283 11.8266 8.14477 11.9424C8.72672 12.0582 9.32992 11.9987 9.87809 11.7717C10.4263 11.5446 10.8948 11.1601 11.2245 10.6668C11.5541 10.1734 11.73 9.59339 11.73 9.00004C11.73 8.20439 11.414 7.44133 10.8514 6.87872C10.2888 6.31611 9.52569 6.00004 8.73004 6.00004ZM8.73004 10.5C8.43337 10.5 8.14336 10.4121 7.89669 10.2472C7.65001 10.0824 7.45776 9.84816 7.34422 9.57407C7.23069 9.29998 7.20099 8.99838 7.25887 8.70741C7.31674 8.41644 7.4596 8.14916 7.66938 7.93938C7.87916 7.72961 8.14644 7.58674 8.43741 7.52887C8.72838 7.47099 9.02998 7.50069 9.30407 7.61422C9.57816 7.72776 9.81243 7.92001 9.97725 8.16669C10.1421 8.41336 10.23 8.70337 10.23 9.00004C10.23 9.39787 10.072 9.7794 9.7907 10.0607C9.5094 10.342 9.12787 10.5 8.73004 10.5Z" fill="#B13F3E"/>
</g>
</svg>
