<svg width="24" height="24" viewBox="0 0 24 24" fill="none" xmlns="http://www.w3.org/2000/svg">
<g id="Actions &#38; UI/trash-alt">
<path id="Vector" d="M10.4669 18C10.7195 18 10.9619 17.8946 11.1405 17.7071C11.3192 17.5196 11.4196 17.2652 11.4196 17V11C11.4196 10.7348 11.3192 10.4804 11.1405 10.2929C10.9619 10.1054 10.7195 10 10.4669 10C10.2142 10 9.9719 10.1054 9.79323 10.2929C9.61457 10.4804 9.5142 10.7348 9.5142 11V17C9.5142 17.2652 9.61457 17.5196 9.79323 17.7071C9.9719 17.8946 10.2142 18 10.4669 18ZM19.9937 6H16.183V5C16.183 4.20435 15.8819 3.44129 15.3459 2.87868C14.8099 2.31607 14.0829 2 13.3249 2H11.4196C10.6616 2 9.93461 2.31607 9.39862 2.87868C8.86263 3.44129 8.56152 4.20435 8.56152 5V6H4.75079C4.49813 6 4.25581 6.10536 4.07714 6.29289C3.89848 6.48043 3.79811 6.73478 3.79811 7C3.79811 7.26522 3.89848 7.51957 4.07714 7.70711C4.25581 7.89464 4.49813 8 4.75079 8H5.70347V19C5.70347 19.7956 6.00459 20.5587 6.54058 21.1213C7.07656 21.6839 7.80352 22 8.56152 22H16.183C16.941 22 17.6679 21.6839 18.2039 21.1213C18.7399 20.5587 19.041 19.7956 19.041 19V8H19.9937C20.2464 8 20.4887 7.89464 20.6673 7.70711C20.846 7.51957 20.9464 7.26522 20.9464 7C20.9464 6.73478 20.846 6.48043 20.6673 6.29289C20.4887 6.10536 20.2464 6 19.9937 6ZM10.4669 5C10.4669 4.73478 10.5673 4.48043 10.7459 4.29289C10.9246 4.10536 11.1669 4 11.4196 4H13.3249C13.5776 4 13.8199 4.10536 13.9986 4.29289C14.1772 4.48043 14.2776 4.73478 14.2776 5V6H10.4669V5ZM17.1357 19C17.1357 19.2652 17.0353 19.5196 16.8566 19.7071C16.678 19.8946 16.4356 20 16.183 20H8.56152C8.30885 20 8.06653 19.8946 7.88787 19.7071C7.70921 19.5196 7.60884 19.2652 7.60884 19V8H17.1357V19ZM14.2776 18C14.5303 18 14.7726 17.8946 14.9513 17.7071C15.1299 17.5196 15.2303 17.2652 15.2303 17V11C15.2303 10.7348 15.1299 10.4804 14.9513 10.2929C14.7726 10.1054 14.5303 10 14.2776 10C14.0249 10 13.7826 10.1054 13.604 10.2929C13.4253 10.4804 13.3249 10.7348 13.3249 11V17C13.3249 17.2652 13.4253 17.5196 13.604 17.7071C13.7826 17.8946 14.0249 18 14.2776 18Z" fill="#B13F3E"/>
</g>
</svg>
