# Blender 4.4.0
# www.blender.org
mtllib Untitled.mtl.mtl
o envelope_v1
v -0.499862 -0.303797 0.025948
v 0.500138 -0.303797 0.025948
v -0.499862 0.303568 0.015347
v 0.500138 0.303568 0.015347
v -0.499862 -0.304670 -0.024044
v 0.500138 -0.304670 -0.024044
v -0.499862 0.302696 -0.034646
v 0.500138 0.302696 -0.034646
v -0.499862 -0.035459 0.021265
v 0.500138 -0.035459 0.021265
v -0.499862 -0.036332 -0.028728
v 0.500138 -0.036332 -0.028728
v 0.000138 -0.303797 0.025948
v 0.000138 0.303568 0.015347
v 0.000138 -0.304670 -0.024044
v 0.000138 0.302696 -0.034646
v 0.000138 -0.036332 -0.028728
v -0.499862 0.303978 0.038822
v 0.000138 0.303978 0.038822
v -0.096559 0.030107 0.020120
v -0.166881 -0.035459 0.021265
v 0.096835 0.030107 0.020120
v 0.167157 -0.035459 0.021265
v 0.000138 -0.303579 0.038478
v 0.500138 -0.303579 0.038478
v 0.000138 0.303787 0.027876
v -0.499862 0.303787 0.027876
v -0.499862 -0.303579 0.038478
v 0.500138 0.303787 0.027876
v 0.167157 -0.035240 0.033794
v 0.000138 -0.035240 0.033794
v 0.096835 0.030326 0.032649
v -0.096559 0.030326 0.032649
v -0.166881 -0.035240 0.033794
v 0.500138 0.303978 0.038822
v 0.000138 0.120672 0.042022
v 0.096835 0.030517 0.043596
v -0.096559 0.030517 0.043596
v 0.000138 -0.035049 0.044740
vn -0.5613 -0.8275 0.0145
vn -0.0000 -0.0175 -0.9998
vn -1.0000 -0.0000 -0.0000
vn -0.0000 -0.9998 0.0175
vn 1.0000 -0.0000 -0.0000
vn -0.0000 0.9998 -0.0174
vn -0.0000 -0.9998 0.0174
vn -0.0000 0.9998 -0.0175
vn -0.0000 0.0175 0.9998
vn 0.6275 0.7785 -0.0136
vn 0.6275 0.7785 -0.0135
vn -0.0000 0.0174 0.9998
vn -0.6275 0.7785 -0.0135
vn -0.6275 0.7785 -0.0136
vn -0.6820 0.7312 -0.0128
vn -0.5613 -0.8275 0.0144
vn 0.5613 -0.8275 0.0144
vn 0.6820 0.7312 -0.0128
vn 0.5613 -0.8275 0.0145
s 0
usemtl craft_paint
f 3//1 20//1 33//1
f 3//1 33//1 27//1
f 17//2 16//2 8//2
f 17//2 8//2 12//2
f 9//3 3//3 7//3
f 9//3 7//3 11//3
f 13//4 1//4 5//4
f 13//4 5//4 15//4
f 10//5 2//5 6//5
f 10//5 6//5 12//5
f 14//6 4//6 8//6
f 14//6 8//6 16//6
f 4//5 10//5 12//5
f 4//5 12//5 8//5
f 1//3 9//3 11//3
f 1//3 11//3 5//3
f 15//2 17//2 12//2
f 15//2 12//2 6//2
f 13//7 2//7 25//7
f 13//7 25//7 24//7
f 4//8 14//8 26//8
f 4//8 26//8 29//8
f 5//2 11//2 17//2
f 5//2 17//2 15//2
f 3//6 14//6 16//6
f 3//6 16//6 7//6
f 2//4 13//4 15//4
f 2//4 15//4 6//4
f 11//2 7//2 16//2
f 11//2 16//2 17//2
f 9//9 21//9 20//9
f 9//9 20//9 3//9
f 2//10 23//10 30//10
f 2//11 30//11 25//11
f 1//7 13//7 24//7
f 1//7 24//7 28//7
f 31//9 30//9 32//9
f 14//8 3//8 27//8
f 14//8 27//8 26//8
f 21//12 9//12 1//12
f 21//13 1//13 28//13
f 21//14 28//14 34//14
f 22//9 23//9 10//9
f 22//9 10//9 4//9
f 20//15 21//15 34//15
f 20//15 34//15 33//15
f 23//12 2//12 10//12
f 24//9 25//9 30//9
f 24//9 30//9 31//9
f 28//9 24//9 31//9
f 28//9 31//9 34//9
f 33//16 31//16 39//16
f 33//16 39//16 38//16
f 27//16 33//16 38//16
f 27//16 38//16 18//16
f 26//6 27//6 18//6
f 26//6 18//6 19//6
f 31//17 32//17 37//17
f 31//17 37//17 39//17
f 33//9 34//9 31//9
f 23//18 22//18 32//18
f 23//18 32//18 30//18
f 22//19 4//19 29//19
f 22//19 29//19 32//19
f 35//9 19//9 36//9
f 35//9 36//9 37//9
f 18//9 38//9 36//9
f 18//9 36//9 19//9
f 37//9 36//9 39//9
f 36//9 38//9 39//9
f 32//17 29//17 35//17
f 32//17 35//17 37//17
f 29//6 26//6 19//6
f 29//6 19//6 35//6
o WaxSeal2
v 0.004320 -0.078224 0.051424
v 0.024688 -0.075536 0.051424
v 0.043680 -0.067664 0.051424
v 0.059984 -0.055152 0.051424
v 0.072496 -0.038848 0.051424
v 0.080368 -0.019856 0.051424
v 0.083056 0.000528 0.051424
v 0.080368 0.020896 0.051424
v 0.072496 0.039888 0.051424
v 0.059984 0.056192 0.051424
v 0.043680 0.068720 0.051424
v 0.024688 0.076576 0.051424
v 0.004320 0.079264 0.051424
v -0.016064 0.076576 0.051424
v -0.035056 0.068720 0.051424
v -0.051360 0.056192 0.051424
v -0.063872 0.039888 0.051424
v -0.071744 0.020896 0.051424
v -0.074432 0.000528 0.051424
v -0.071744 -0.019856 0.051424
v -0.063872 -0.038848 0.051424
v -0.051360 -0.055152 0.051424
v -0.035056 -0.067664 0.051424
v -0.016064 -0.075536 0.051424
v 0.004320 -0.078224 0.061152
v 0.024688 -0.075536 0.061152
v 0.043680 -0.067664 0.061152
v 0.059984 -0.055152 0.061152
v 0.072496 -0.038848 0.061152
v 0.080368 -0.019856 0.061152
v 0.083056 0.000528 0.061152
v 0.080368 0.020896 0.061152
v 0.072496 0.039888 0.061152
v 0.059984 0.056192 0.061152
v 0.043680 0.068720 0.061152
v 0.024688 0.076576 0.061152
v 0.004320 0.079264 0.061152
v -0.016064 0.076576 0.061152
v -0.035056 0.068720 0.061152
v -0.051360 0.056192 0.061152
v -0.063872 0.039888 0.061152
v -0.071744 0.020896 0.061152
v -0.074432 0.000528 0.061152
v -0.071744 -0.019856 0.061152
v -0.063872 -0.038848 0.061152
v -0.051360 -0.055152 0.061152
v -0.035056 -0.067664 0.061152
v -0.016064 -0.075536 0.061152
v 0.019920 -0.105248 0.061152
v 0.055888 -0.106992 0.061152
v 0.072736 -0.101056 0.061152
v 0.081136 -0.090352 0.061152
v 0.085856 -0.054560 0.061152
v 0.100608 -0.040304 0.061152
v 0.109392 -0.023248 0.061152
v 0.107888 -0.006112 0.061152
v 0.089760 0.039824 0.061440
v 0.088144 0.071216 0.061152
v 0.071328 0.095808 0.061152
v 0.053360 0.106048 0.061152
v 0.004336 0.106992 0.061152
v -0.024144 0.106752 0.061152
v -0.050672 0.095760 0.061152
v -0.080592 0.065968 0.061152
v -0.091728 0.060080 0.061152
v -0.098480 0.048336 0.061152
v -0.098016 0.017344 0.061152
v -0.109392 0.006160 0.061152
v -0.107696 -0.016960 0.061152
v -0.095696 -0.030864 0.061152
v -0.065424 -0.079984 0.061152
v -0.043504 -0.098128 0.061152
v 0.020240 -0.107344 0.046016
v 0.056912 -0.109120 0.046016
v 0.074080 -0.103072 0.046016
v 0.082656 -0.092144 0.046016
v 0.087456 -0.055664 0.046016
v 0.102496 -0.041136 0.046016
v 0.111456 -0.023744 0.046016
v 0.109920 -0.006272 0.046016
v 0.091440 0.040544 0.046016
v 0.089776 0.072544 0.046016
v 0.072656 0.097600 0.046016
v 0.054336 0.108048 0.046016
v 0.004352 0.109008 0.046016
v -0.024672 0.108768 0.046016
v -0.051712 0.097568 0.046016
v -0.082208 0.067200 0.046016
v -0.093552 0.061184 0.046016
v -0.100448 0.049216 0.046016
v -0.099984 0.017632 0.046016
v -0.111568 0.006224 0.046016
v -0.109840 -0.017344 0.046016
v -0.097600 -0.031504 0.046016
v -0.066752 -0.081600 0.046016
v -0.044400 -0.100080 0.046016
v 0.007120 -0.083072 0.065488
v 0.032480 -0.083392 0.068528
v 0.050928 -0.076000 0.069648
v 0.064960 -0.063424 0.068176
v 0.073856 -0.040448 0.063248
v 0.083680 -0.023200 0.066192
v 0.088464 -0.004368 0.067552
v 0.086480 0.014896 0.066736
v 0.073776 0.039888 0.062720
v 0.065168 0.058960 0.064784
v 0.049856 0.074752 0.067312
v 0.031424 0.083504 0.067664
v 0.004320 0.083600 0.064912
v -0.017520 0.082000 0.067744
v -0.037872 0.073584 0.066480
v -0.056544 0.057936 0.065984
v -0.069424 0.043920 0.067488
v -0.077648 0.026960 0.067024
v -0.078320 0.003296 0.064624
v -0.081376 -0.013200 0.067312
v -0.075648 -0.032960 0.067632
v -0.063536 -0.048480 0.067760
v -0.040816 -0.070000 0.067072
v -0.021712 -0.080192 0.067472
v 0.017120 -0.100400 0.065488
v 0.048096 -0.099136 0.068528
v 0.065488 -0.092736 0.069648
v 0.076176 -0.082080 0.068176
v 0.084496 -0.052960 0.063248
v 0.097296 -0.036960 0.066192
v 0.103984 -0.018352 0.067552
v 0.101776 -0.000096 0.066736
v 0.088480 0.039824 0.062720
v 0.082960 0.068448 0.064784
v 0.065168 0.089760 0.067312
v 0.046624 0.099120 0.067664
v 0.004320 0.102656 0.064912
v -0.022704 0.101328 0.067744
v -0.047872 0.090896 0.066480
v -0.075408 0.064240 0.065984
v -0.086176 0.056048 0.067488
v -0.092576 0.042272 0.067024
v -0.094128 0.014576 0.064624
v -0.099760 -0.000496 0.067312
v -0.095920 -0.022832 0.067632
v -0.083520 -0.037536 0.067760
v -0.059664 -0.077648 0.067072
v -0.037856 -0.093472 0.067472
v 0.012112 -0.091744 0.069344
v 0.040288 -0.091264 0.071552
v 0.058208 -0.084368 0.072672
v 0.070560 -0.072752 0.071360
v 0.079184 -0.046704 0.066992
v 0.090496 -0.030080 0.070256
v 0.096224 -0.011360 0.071104
v 0.094128 0.007392 0.069824
v 0.081136 0.039856 0.066400
v 0.074064 0.063712 0.068288
v 0.057504 0.082256 0.071520
v 0.039024 0.091312 0.071712
v 0.004320 0.093120 0.069056
v -0.020112 0.091664 0.071584
v -0.042864 0.082240 0.070336
v -0.065984 0.061088 0.069856
v -0.077808 0.049984 0.071104
v -0.085120 0.034608 0.070384
v -0.086224 0.008928 0.067744
v -0.090576 -0.006848 0.070256
v -0.085792 -0.027904 0.070416
v -0.073520 -0.043008 0.070480
v -0.050240 -0.073824 0.070800
v -0.029792 -0.086832 0.071008
vn -0.0001 1.0000 -0.0000
vn -0.2591 0.9659 -0.0000
vn -0.5001 0.8660 -0.0000
vn -0.7071 0.7071 -0.0000
vn -0.8660 0.5001 -0.0000
vn -0.9659 0.2590 -0.0000
vn -1.0000 -0.0001 -0.0000
vn -0.9659 -0.2587 -0.0000
vn -0.8660 -0.5001 -0.0000
vn -0.7073 -0.7069 -0.0000
vn -0.5001 -0.8660 -0.0000
vn -0.2587 -0.9659 -0.0000
vn -0.0001 -1.0000 -0.0000
vn 0.2587 -0.9660 -0.0000
vn 0.5001 -0.8660 -0.0000
vn 0.7073 -0.7069 -0.0000
vn 0.8660 -0.5001 -0.0000
vn 0.9659 -0.2591 -0.0000
vn 1.0000 -0.0001 -0.0000
vn 0.9659 0.2590 -0.0000
vn 0.8660 0.5001 -0.0000
vn 0.7071 0.7071 -0.0000
vn 0.5001 0.8660 -0.0000
vn 0.2590 0.9659 -0.0000
vn -0.0000 -0.0000 1.0000
vn -0.1367 0.6024 0.7864
vn 0.0250 0.6728 0.7394
vn 0.0122 0.5496 0.8353
vn -0.1572 0.3982 0.9037
vn -0.3030 0.5233 0.7965
vn -0.2217 0.3679 0.9030
vn -0.4444 0.4147 0.7940
vn -0.2763 0.3310 0.9023
vn -0.6420 0.3486 0.6829
vn -0.5210 0.2905 0.8026
vn -0.7414 0.1993 0.6408
vn -0.5832 0.1549 0.7974
vn -0.7553 -0.0093 0.6554
vn -0.5676 0.0354 0.8225
vn -0.7762 -0.2618 0.5736
vn -0.5841 -0.0964 0.8059
vn -0.7004 -0.3502 0.6220
vn -0.6019 -0.2629 0.7541
vn -0.3747 -0.4013 0.8358
vn -0.2999 -0.3307 0.8948
vn -0.2913 -0.5142 0.8067
vn -0.2315 -0.4165 0.8792
vn -0.1352 -0.6070 0.7831
vn -0.1420 -0.4645 0.8741
vn -0.0000 -0.6556 0.7551
vn 0.0120 -0.5385 0.8426
vn 0.1947 -0.7195 0.6667
vn 0.1595 -0.5314 0.8319
vn 0.3436 -0.5952 0.7264
vn 0.2547 -0.4660 0.8473
vn 0.4870 -0.5049 0.7127
vn 0.3963 -0.3858 0.8331
vn 0.5679 -0.3502 0.7448
vn 0.4226 -0.2620 0.8676
vn 0.6162 -0.1448 0.7742
vn 0.4341 -0.1617 0.8863
vn 0.6344 -0.0139 0.7729
vn 0.5196 -0.0282 0.8540
vn 0.5925 0.1685 0.7878
vn 0.4615 0.0959 0.8819
vn 0.5913 0.4120 0.6933
vn 0.4755 0.2771 0.8349
vn 0.5910 0.5957 0.5439
vn 0.5028 0.4056 0.7633
vn 0.3797 0.6517 0.6566
vn 0.3353 0.4795 0.8110
vn 0.1719 0.7075 0.6855
vn 0.1656 0.5227 0.8363
vn 0.1355 -0.8713 0.4716
vn -0.0689 -0.8888 0.4531
vn -0.0786 -0.9878 0.1346
vn 0.1485 -0.9779 0.1471
vn 0.5130 -0.7091 0.4838
vn 0.5746 -0.8032 0.1575
vn 0.8147 -0.3599 0.4547
vn 0.9085 -0.3947 0.1374
vn 0.8094 -0.3815 0.4464
vn 0.8875 -0.4430 0.1264
vn 0.7267 -0.5480 0.4142
vn 0.7974 -0.5889 0.1318
vn 0.8887 -0.1870 0.4186
vn 0.9716 -0.1919 0.1387
vn 0.9004 0.2020 0.3854
vn 0.9663 0.2242 0.1268
vn 0.8702 0.2167 0.4424
vn 0.9711 0.2088 0.1155
vn 0.8148 0.2770 0.5093
vn 0.9369 0.3245 0.1302
vn 0.5915 0.6324 0.5002
vn 0.6690 0.7290 0.1449
vn 0.2435 0.8411 0.4830
vn 0.2666 0.9531 0.1430
vn 0.0142 0.8853 0.4649
vn 0.0054 0.9912 0.1321
vn -0.1892 0.8964 0.4008
vn -0.1982 0.9706 0.1362
vn -0.4969 0.7476 0.4406
vn -0.5487 0.8249 0.1358
vn -0.5289 0.7249 0.4414
vn -0.5856 0.8005 0.1274
vn -0.6268 0.6452 0.4369
vn -0.6926 0.7084 0.1360
vn -0.8595 0.2274 0.4578
vn -0.9576 0.2522 0.1391
vn -0.7881 0.2865 0.5449
vn -0.9147 0.3841 0.1254
vn -0.8007 0.3123 0.5112
vn -0.9312 0.3382 0.1356
vn -0.8148 -0.3126 0.4882
vn -0.9171 -0.3737 0.1391
vn -0.7291 -0.5540 0.4019
vn -0.7991 -0.5879 0.1260
vn -0.6867 -0.5850 0.4316
vn -0.7462 -0.6521 0.1345
vn -0.3635 -0.8265 0.4298
vn -0.3875 -0.9110 0.1408
vn -0.0537 -0.5718 0.8187
vn 0.0292 -0.5242 0.8511
vn 0.2629 -0.3751 0.8889
vn 0.5297 -0.1702 0.8309
vn 0.5331 -0.2613 0.8047
vn 0.4555 -0.3593 0.8145
vn 0.5815 -0.0653 0.8109
vn 0.6534 0.2055 0.7286
vn 0.5813 0.1727 0.7951
vn 0.4391 0.1351 0.8882
vn 0.3385 0.3433 0.8761
vn 0.1124 0.5133 0.8508
vn 0.0217 0.5441 0.8387
vn -0.1155 0.5748 0.8101
vn -0.3203 0.4558 0.8305
vn -0.3519 0.4770 0.8054
vn -0.3870 0.3751 0.8423
vn -0.5310 0.0720 0.8443
vn -0.4298 0.1335 0.8930
vn -0.3785 0.1028 0.9199
vn -0.4869 -0.2794 0.8276
vn -0.4994 -0.3541 0.7907
vn -0.4177 -0.3839 0.8235
vn -0.1857 -0.5430 0.8189
vn -0.0287 -0.0328 0.9991
vn -0.0766 -0.1036 0.9917
vn 0.0243 -0.0257 0.9994
vn 0.1858 0.0668 0.9803
vn -0.0251 0.0202 0.9995
vn -0.0466 -0.0904 0.9948
vn 0.0657 0.0342 0.9973
vn 0.1262 0.1393 0.9822
vn -0.0197 -0.0094 0.9998
vn 0.0866 -0.0732 0.9936
vn 0.0717 -0.0117 0.9974
vn -0.0341 0.0790 0.9963
vn 0.0141 0.0144 0.9998
vn 0.0241 0.0400 0.9989
vn -0.0560 0.0161 0.9983
vn 0.0182 0.0353 0.9992
vn -0.0139 0.0382 0.9992
vn -0.1058 -0.0683 0.9920
vn 0.0569 0.0308 0.9979
vn -0.0011 0.0562 0.9984
vn -0.0731 -0.0956 0.9927
vn 0.0252 0.0479 0.9985
vn -0.0246 -0.0170 0.9996
vn 0.0159 -0.0738 0.9971
vn -0.0000 -0.0000 -1.0000
vt 0.299700 0.286900
vt 0.282200 0.265800
vt 0.330700 0.233500
vt 0.346100 0.255100
vt 0.642800 0.805400
vt 0.627000 0.829300
vt 0.574300 0.795500
vt 0.592000 0.772300
vt 0.526200 0.753700
vt 0.547400 0.734300
vt 0.486500 0.703800
vt 0.512300 0.690200
vt 0.468100 0.642900
vt 0.496000 0.635600
vt 0.458300 0.580000
vt 0.487100 0.576600
vt 0.454100 0.516300
vt 0.482900 0.516500
vt 0.455600 0.452300
vt 0.484300 0.458700
vt 0.480100 0.393100
vt 0.505800 0.406200
vt 0.516000 0.340000
vt 0.539000 0.357600
vt 0.558900 0.292400
vt 0.579400 0.313200
vt 0.606100 0.250900
vt 0.625100 0.272700
vt 0.369400 0.844300
vt 0.355000 0.866900
vt 0.305500 0.836000
vt 0.321300 0.813900
vt 0.258900 0.799100
vt 0.277700 0.779500
vt 0.219600 0.754100
vt 0.241500 0.738000
vt 0.189300 0.702200
vt 0.213500 0.690000
vt 0.166200 0.646300
vt 0.192000 0.638200
vt 0.151500 0.587700
vt 0.178800 0.584600
vt 0.152700 0.527300
vt 0.179800 0.529300
vt 0.162700 0.467500
vt 0.189300 0.473500
vt 0.178700 0.409400
vt 0.203900 0.419200
vt 0.204500 0.355400
vt 0.227800 0.369500
vt 0.240000 0.307500
vt 0.260400 0.325300
vt 0.793300 0.819600
vt 0.734200 0.819000
vt 0.677200 0.803200
vt 0.626200 0.773200
vt 0.584700 0.731000
vt 0.850600 0.804700
vt 0.902100 0.775600
vt 0.555600 0.679500
vt 0.944300 0.734100
vt 0.540800 0.622200
vt 0.541300 0.563000
vt 0.974400 0.683200
vt 0.990200 0.626100
vt 0.557100 0.506000
vt 0.990700 0.567000
vt 0.587100 0.455000
vt 0.629300 0.413600
vt 0.975900 0.509700
vt 0.946700 0.458200
vt 0.680800 0.384400
vt 0.738100 0.369600
vt 0.905300 0.416000
vt 0.854300 0.386000
vt 0.797300 0.370100
vt 0.276600 0.245800
vt 0.330000 0.197500
vt 0.597100 0.854700
vt 0.544800 0.824900
vt 0.505400 0.781900
vt 0.478500 0.710400
vt 0.451500 0.655300
vt 0.435600 0.597200
vt 0.433600 0.537400
vt 0.448300 0.452400
vt 0.459500 0.389000
vt 0.487300 0.326700
vt 0.527000 0.278500
vt 0.597300 0.236100
vt 0.349000 0.881300
vt 0.292000 0.856000
vt 0.243700 0.815200
vt 0.199900 0.760600
vt 0.167400 0.715800
vt 0.145000 0.665400
vt 0.136600 0.597300
vt 0.122900 0.549700
vt 0.128900 0.490000
vt 0.144400 0.434900
vt 0.180400 0.352900
vt 0.214200 0.300100
vt 0.335500 0.096300
vt 0.260900 0.163700
vt 0.232700 0.131000
vt 0.309300 0.062300
vt 0.466200 0.895800
vt 0.507200 0.927400
vt 0.474100 0.962400
vt 0.431700 0.924300
vt 0.446600 0.863900
vt 0.407200 0.884900
vt 0.423000 0.759300
vt 0.379000 0.778100
vt 0.389600 0.707900
vt 0.347900 0.724900
vt 0.368500 0.657300
vt 0.325300 0.666700
vt 0.368100 0.608800
vt 0.322300 0.610100
vt 0.386700 0.462900
vt 0.338700 0.460200
vt 0.377600 0.370600
vt 0.333500 0.362900
vt 0.397800 0.287600
vt 0.357900 0.267800
vt 0.432000 0.240400
vt 0.399600 0.209600
vt 0.554400 0.162100
vt 0.527400 0.123600
vt 0.249300 0.925000
vt 0.321500 0.956400
vt 0.302300 0.996000
vt 0.226600 0.960300
vt 0.188500 0.876200
vt 0.159000 0.906400
vt 0.118800 0.783300
vt 0.083600 0.809600
vt 0.095900 0.759700
vt 0.059700 0.780800
vt 0.081100 0.729000
vt 0.041800 0.743700
vt 0.068000 0.645300
vt 0.024300 0.657800
vt 0.045800 0.610300
vt 0.005500 0.616300
vt 0.045700 0.551100
vt 0.003800 0.547200
vt 0.061000 0.505300
vt 0.018100 0.495700
vt 0.095400 0.349500
vt 0.056200 0.333500
vt 0.129200 0.281200
vt 0.095800 0.256200
vt 0.266600 0.183500
vt 0.337700 0.133800
vt 0.542200 0.901400
vt 0.496700 0.870500
vt 0.468000 0.836700
vt 0.434000 0.751800
vt 0.405600 0.697200
vt 0.390200 0.641500
vt 0.391700 0.588200
vt 0.395000 0.462500
vt 0.396500 0.376000
vt 0.425600 0.299800
vt 0.463500 0.253300
vt 0.565500 0.178300
vt 0.329000 0.939300
vt 0.261600 0.905800
vt 0.202600 0.860300
vt 0.139800 0.775500
vt 0.117100 0.747300
vt 0.101600 0.709700
vt 0.086200 0.634500
vt 0.074500 0.591400
vt 0.079300 0.529200
vt 0.096100 0.479500
vt 0.118900 0.352600
vt 0.154300 0.288400
vt 0.271600 0.214600
vt 0.334400 0.166000
vt 0.570400 0.877500
vt 0.520800 0.848200
vt 0.487100 0.809700
vt 0.457000 0.731000
vt 0.428200 0.676300
vt 0.412900 0.619800
vt 0.414000 0.563300
vt 0.422000 0.457700
vt 0.427800 0.382200
vt 0.456400 0.312800
vt 0.495100 0.266000
vt 0.581300 0.207800
vt 0.338900 0.909500
vt 0.276500 0.881000
vt 0.223000 0.837900
vt 0.170100 0.767800
vt 0.142100 0.731800
vt 0.123500 0.687800
vt 0.112000 0.615800
vt 0.098400 0.570800
vt 0.104200 0.509900
vt 0.120400 0.457400
vt 0.149500 0.353000
vt 0.184100 0.294500
vt 0.664800 0.221000
vt 0.647800 0.197300
vt 0.648300 0.160600
vt 0.667800 0.144500
vt 0.705800 0.302800
vt 0.671400 0.095500
vt 0.738000 0.334400
vt 0.683700 0.077800
vt 0.837200 0.354500
vt 0.702100 0.070100
vt 0.893800 0.362200
vt 0.753400 0.027100
vt 0.921200 0.355100
vt 0.796900 0.013400
vt 0.841900 0.017000
vt 0.936000 0.339400
vt 0.948400 0.283500
vt 0.919200 0.025300
vt 0.973600 0.263000
vt 0.946200 0.043900
vt 0.989900 0.237300
vt 0.967600 0.134900
vt 0.989900 0.210000
vt 0.969400 0.085100
s 1
usemtl WaxSeal2
f 40/1/20 64/2/20 65/3/21 41/4/21
f 41/5/21 65/6/21 66/7/22 42/8/22
f 42/8/22 66/7/22 67/9/23 43/10/23
f 43/10/23 67/9/23 68/11/24 44/12/24
f 44/12/24 68/11/24 69/13/25 45/14/25
f 45/14/25 69/13/25 70/15/26 46/16/26
f 46/16/26 70/15/26 71/17/27 47/18/27
f 47/18/27 71/17/27 72/19/28 48/20/28
f 48/20/28 72/19/28 73/21/29 49/22/29
f 49/22/29 73/21/29 74/23/30 50/24/30
f 50/24/30 74/23/30 75/25/31 51/26/31
f 51/26/31 75/25/31 76/27/32 52/28/32
f 52/29/32 76/30/32 77/31/33 53/32/33
f 53/32/33 77/31/33 78/33/34 54/34/34
f 54/34/34 78/33/34 79/35/35 55/36/35
f 55/36/35 79/35/35 80/37/36 56/38/36
f 56/38/36 80/37/36 81/39/37 57/40/37
f 57/40/37 81/39/37 82/41/38 58/42/38
f 58/42/38 82/41/38 83/43/39 59/44/39
f 59/44/39 83/43/39 84/45/40 60/46/40
f 60/46/40 84/45/40 85/47/41 61/48/41
f 61/48/41 85/47/41 86/49/42 62/50/42
f 62/50/42 86/49/42 87/51/43 63/52/43
f 63/52/43 87/51/43 64/2/20 40/1/20
f 45/53/44 46/54/44 47/55/44 48/56/44
f 48/56/44 49/57/44 44/58/44 45/53/44
f 43/59/44 44/58/44 49/57/44 50/60/44
f 42/61/44 43/59/44 50/60/44 51/62/44
f 51/62/44 52/63/44 41/64/44 42/61/44
f 40/65/44 41/64/44 52/63/44 53/66/44
f 63/67/44 40/65/44 53/66/44 54/68/44
f 54/68/44 55/69/44 62/70/44 63/67/44
f 61/71/44 62/70/44 55/69/44 56/72/44
f 56/72/44 57/73/44 60/74/44 61/71/44
f 59/75/44 60/74/44 57/73/44 58/76/44
f 65/3/45 64/2/46 136/77/47 137/78/48
f 66/7/49 65/6/45 137/79/48 138/80/50
f 67/9/51 66/7/49 138/80/50 139/81/52
f 68/11/53 67/9/51 139/81/52 140/82/54
f 69/13/55 68/11/53 140/82/54 141/83/56
f 70/15/57 69/13/55 141/83/56 142/84/58
f 71/17/59 70/15/57 142/84/58 143/85/60
f 72/19/61 71/17/59 143/85/60 144/86/62
f 73/21/63 72/19/61 144/86/62 145/87/64
f 74/23/65 73/21/63 145/87/64 146/88/66
f 75/25/67 74/23/65 146/88/66 147/89/68
f 76/27/69 75/25/67 147/89/68 148/90/70
f 77/31/71 76/30/69 148/91/70 149/92/72
f 78/33/73 77/31/71 149/92/72 150/93/74
f 79/35/75 78/33/73 150/93/74 151/94/76
f 80/37/77 79/35/75 151/94/76 152/95/78
f 81/39/79 80/37/77 152/95/78 153/96/80
f 82/41/81 81/39/79 153/96/80 154/97/82
f 83/43/83 82/41/81 154/97/82 155/98/84
f 84/45/85 83/43/83 155/98/84 156/99/86
f 85/47/87 84/45/85 156/99/86 157/100/88
f 86/49/89 85/47/87 157/100/88 158/101/90
f 87/51/91 86/49/89 158/101/90 159/102/92
f 64/2/46 87/51/91 159/102/92 136/77/47
f 89/103/93 88/104/94 112/105/95 113/106/96
f 90/107/97 89/108/93 113/109/96 114/110/98
f 91/111/99 90/107/97 114/110/98 115/112/100
f 92/113/101 91/111/99 115/112/100 116/114/102
f 93/115/103 92/113/101 116/114/102 117/116/104
f 94/117/105 93/115/103 117/116/104 118/118/106
f 95/119/107 94/117/105 118/118/106 119/120/108
f 96/121/109 95/119/107 119/120/108 120/122/110
f 97/123/111 96/121/109 120/122/110 121/124/112
f 98/125/113 97/123/111 121/124/112 122/126/114
f 99/127/115 98/125/113 122/126/114 123/128/116
f 100/129/117 99/127/115 123/128/116 124/130/118
f 101/131/119 100/132/117 124/133/118 125/134/120
f 102/135/121 101/131/119 125/134/120 126/136/122
f 103/137/123 102/135/121 126/136/122 127/138/124
f 104/139/125 103/137/123 127/138/124 128/140/126
f 105/141/127 104/139/125 128/140/126 129/142/128
f 106/143/129 105/141/127 129/142/128 130/144/130
f 107/145/131 106/143/129 130/144/130 131/146/132
f 108/147/133 107/145/131 131/146/132 132/148/134
f 109/149/135 108/147/133 132/148/134 133/150/136
f 110/151/137 109/149/135 133/150/136 134/152/138
f 111/153/139 110/151/137 134/152/138 135/154/140
f 88/104/94 111/153/139 135/154/140 112/105/95
f 160/155/141 88/104/94 89/103/93 161/156/142
f 161/157/142 89/108/93 90/107/97 162/158/143
f 162/158/143 90/107/97 91/111/99 163/159/144
f 163/159/144 91/111/99 92/113/101 164/160/145
f 164/160/145 92/113/101 93/115/103 165/161/146
f 165/161/146 93/115/103 94/117/105 166/162/147
f 166/162/147 94/117/105 95/119/107 167/163/148
f 167/163/148 95/119/107 96/121/109 168/164/149
f 168/164/149 96/121/109 97/123/111 169/165/150
f 169/165/150 97/123/111 98/125/113 170/166/151
f 170/166/151 98/125/113 99/127/115 171/167/152
f 171/167/152 99/127/115 100/129/117 172/168/153
f 172/169/153 100/132/117 101/131/119 173/170/154
f 173/170/154 101/131/119 102/135/121 174/171/155
f 174/171/155 102/135/121 103/137/123 175/172/156
f 175/172/156 103/137/123 104/139/125 176/173/157
f 176/173/157 104/139/125 105/141/127 177/174/158
f 177/174/158 105/141/127 106/143/129 178/175/159
f 178/175/159 106/143/129 107/145/131 179/176/160
f 179/176/160 107/145/131 108/147/133 180/177/161
f 180/177/161 108/147/133 109/149/135 181/178/162
f 181/178/162 109/149/135 110/151/137 182/179/163
f 182/179/163 110/151/137 111/153/139 183/180/164
f 183/180/164 111/153/139 88/104/94 160/155/141
f 136/77/47 184/181/165 185/182/166 137/78/48
f 137/79/48 185/183/166 186/184/167 138/80/50
f 138/80/50 186/184/167 187/185/168 139/81/52
f 139/81/52 187/185/168 188/186/169 140/82/54
f 140/82/54 188/186/169 189/187/170 141/83/56
f 141/83/56 189/187/170 190/188/171 142/84/58
f 142/84/58 190/188/171 191/189/172 143/85/60
f 143/85/60 191/189/172 192/190/173 144/86/62
f 144/86/62 192/190/173 193/191/174 145/87/64
f 145/87/64 193/191/174 194/192/175 146/88/66
f 146/88/66 194/192/175 195/193/176 147/89/68
f 147/89/68 195/193/176 196/194/177 148/90/70
f 148/91/70 196/195/177 197/196/178 149/92/72
f 149/92/72 197/196/178 198/197/179 150/93/74
f 150/93/74 198/197/179 199/198/180 151/94/76
f 151/94/76 199/198/180 200/199/181 152/95/78
f 152/95/78 200/199/181 201/200/182 153/96/80
f 153/96/80 201/200/182 202/201/183 154/97/82
f 154/97/82 202/201/183 203/202/184 155/98/84
f 155/98/84 203/202/184 204/203/185 156/99/86
f 156/99/86 204/203/185 205/204/186 157/100/88
f 157/100/88 205/204/186 206/205/187 158/101/90
f 158/101/90 206/205/187 207/206/188 159/102/92
f 159/102/92 207/206/188 184/181/165 136/77/47
f 184/181/165 160/155/141 161/156/142 185/182/166
f 185/183/166 161/157/142 162/158/143 186/184/167
f 186/184/167 162/158/143 163/159/144 187/185/168
f 187/185/168 163/159/144 164/160/145 188/186/169
f 188/186/169 164/160/145 165/161/146 189/187/170
f 189/187/170 165/161/146 166/162/147 190/188/171
f 190/188/171 166/162/147 167/163/148 191/189/172
f 191/189/172 167/163/148 168/164/149 192/190/173
f 192/190/173 168/164/149 169/165/150 193/191/174
f 193/191/174 169/165/150 170/166/151 194/192/175
f 194/192/175 170/166/151 171/167/152 195/193/176
f 195/193/176 171/167/152 172/168/153 196/194/177
f 196/195/177 172/169/153 173/170/154 197/196/178
f 197/196/178 173/170/154 174/171/155 198/197/179
f 198/197/179 174/171/155 175/172/156 199/198/180
f 199/198/180 175/172/156 176/173/157 200/199/181
f 200/199/181 176/173/157 177/174/158 201/200/182
f 201/200/182 177/174/158 178/175/159 202/201/183
f 202/201/183 178/175/159 179/176/160 203/202/184
f 203/202/184 179/176/160 180/177/161 204/203/185
f 204/203/185 180/177/161 181/178/162 205/204/186
f 205/204/186 181/178/162 182/179/163 206/205/187
f 206/205/187 182/179/163 183/180/164 207/206/188
f 207/206/188 183/180/164 160/155/141 184/181/165
f 133/207/189 132/208/189 131/209/189 130/210/189
f 134/211/189 133/207/189 130/210/189 129/212/189
f 135/213/189 134/211/189 129/212/189 128/214/189
f 112/215/189 135/213/189 128/214/189 127/216/189
f 113/217/189 112/215/189 127/216/189 126/218/189
f 114/219/189 113/217/189 126/218/189 125/220/189
f 125/220/189 124/221/189 115/222/189 114/219/189
f 116/223/189 115/222/189 124/221/189 123/224/189
f 117/225/189 116/223/189 123/224/189 122/226/189
f 118/227/189 117/225/189 120/228/189 119/229/189
f 121/230/189 120/228/189 117/225/189 122/226/189
